<svg height="96" width="96" xmlns="http://www.w3.org/2000/svg" xmlns:xlink="http://www.w3.org/1999/xlink"><linearGradient id="a"><stop offset="0" stop-color="#ededed"/><stop offset="1" stop-color="#b0b0b0"/></linearGradient><linearGradient id="b"><stop offset="0" stop-color="#b4b4b4"/><stop offset=".20467032" stop-color="#646464"/><stop offset=".49567693" stop-color="#fff"/><stop offset="1" stop-color="#3c3c3c"/></linearGradient><linearGradient id="c"><stop offset="0" stop-color="#818181"/><stop offset=".2" stop-color="#f9f9f9"/><stop offset="1" stop-color="#dcdcdc" stop-opacity="0"/></linearGradient><linearGradient id="d" gradientUnits="userSpaceOnUse" x1="19.035713" x2="87.5" y1="74" y2="27.428572"><stop offset="0" stop-color="#fff"/><stop offset="1" stop-color="#fff" stop-opacity="0"/></linearGradient><linearGradient id="e" gradientUnits="userSpaceOnUse" x1="6" x2="24" xlink:href="#c" y1="73" y2="73"/><linearGradient id="f" gradientTransform="matrix(-1 0 0 1 96 0)" gradientUnits="userSpaceOnUse" x1="6" x2="24" xlink:href="#c" y1="73" y2="73"/><linearGradient id="g" gradientUnits="userSpaceOnUse" x1="38.748035" x2="38.748035" y1="65.59034" y2="5.833157"><stop offset="0" stop-color="#dcdcdc"/><stop offset="1" stop-color="#fafafa"/></linearGradient><radialGradient id="h" cx="90" cy="90" gradientTransform="matrix(0 -1.085034 2 0 -90 187.65306)" gradientUnits="userSpaceOnUse" r="42"><stop offset="0" stop-color="#b4b4b4"/><stop offset="1" stop-color="#dcdcdc"/></radialGradient><clipPath id="i"><path d="m66 6v55c0 1.662 1.338 3 3 3h6c1.662 0 3-1.338 3-3v-55h-4v2h-4v-2z"/></clipPath><filter id="j" color-interpolation-filters="sRGB" height="1.07322" width="1.332308" x="-.166154" y="-.03661"><feGaussianBlur stdDeviation=".9"/></filter><linearGradient id="k" gradientUnits="userSpaceOnUse" x1="68.75" x2="75.25" xlink:href="#b" y1="58" y2="58"/><linearGradient id="l" gradientUnits="userSpaceOnUse" x1="69" x2="73" y1="53" y2="53"><stop offset="0" stop-color="#fff"/><stop offset=".48973215" stop-color="#8c8c8c"/><stop offset=".50044644" stop-color="#cfcfcf"/><stop offset=".62276787" stop-color="#fff"/><stop offset=".81696427" stop-color="#c8c8c8"/><stop offset="1" stop-color="#505050"/></linearGradient><linearGradient id="m" gradientUnits="userSpaceOnUse" x1="63.484772" x2="79" y1="64.163078" y2="65"><stop offset="0" stop-color="#a2a2a2"/><stop offset="1" stop-color="#fff"/></linearGradient><filter id="n" color-interpolation-filters="sRGB" height="1.190707" width="1.323657" x="-.161828" y="-.095354"><feGaussianBlur stdDeviation=".53551312"/></filter><linearGradient id="o" gradientTransform="matrix(-1 0 0 1 144.03125 -2)" gradientUnits="userSpaceOnUse" x1="68.96875" x2="75.0625" xlink:href="#a" y1="17.5" y2="17.5"/><linearGradient id="p" gradientUnits="userSpaceOnUse" x1="68.02903" x2="75.97097" xlink:href="#a" y1="15.763245" y2="15.763245"/><linearGradient id="q" gradientTransform="matrix(1.1262691 0 0 1 -7.401969 -49.5)" gradientUnits="userSpaceOnUse" x1="68.75" x2="72.250572" xlink:href="#b" y1="59" y2="59"/><linearGradient id="r" gradientTransform="matrix(-1 0 0 1 144 -4)" gradientUnits="userSpaceOnUse" x1="69" x2="73" y1="54" y2="54"><stop offset="0" stop-color="#2f2f2f"/><stop offset=".43731192" stop-color="#fff"/><stop offset=".62138397" stop-color="#979797"/><stop offset=".7723214" stop-color="#505050"/><stop offset="1" stop-color="#e6e6e6"/></linearGradient><linearGradient id="s" gradientTransform="matrix(1.0058652 0 0 .994169 100 0)" gradientUnits="userSpaceOnUse" x1="45.447727" x2="45.447727" y1="92.539597" y2="7.01654"><stop offset="0"/><stop offset="1" stop-opacity=".588235"/></linearGradient><linearGradient id="t" gradientTransform="matrix(1.0238095 0 0 1.0119048 -1.142857 -98.071429)" gradientUnits="userSpaceOnUse" x1="32.251034" x2="32.251034" xlink:href="#s" y1="6.131708" y2="90.238609"/><linearGradient id="u" gradientTransform="translate(0 -97)" gradientUnits="userSpaceOnUse" x1="32.251034" x2="32.251034" xlink:href="#s" y1="6.131708" y2="90.238609"/><g><g fill="url(#t)"><path d="m12-95.03125c-5.5110903 0-10.03125 4.52016-10.03125 10.03125v71c0 5.5110902 4.5201598 10.03125 10.03125 10.03125h72c5.51109 0 10.03125-4.5201597 10.03125-10.03125v-71c0-5.51109-4.52016-10.03125-10.03125-10.03125z" opacity=".08" transform="scale(1 -1)"/><path d="m12-94.03125c-4.971633 0-9.03125 4.059617-9.03125 9.03125v71c0 4.9716329 4.0596171 9.03125 9.03125 9.03125h72c4.971633 0 9.03125-4.059617 9.03125-9.03125v-71c0-4.971633-4.059617-9.03125-9.03125-9.03125z" opacity=".1" transform="scale(1 -1)"/><path d="m12-93c-4.4091333 0-8 3.590867-8 8v71c0 4.4091333 3.5908667 8 8 8h72c4.409133 0 8-3.5908667 8-8v-71c0-4.409133-3.590867-8-8-8z" opacity=".2" transform="scale(1 -1)"/><rect height="85" opacity=".3" rx="7" transform="scale(1 -1)" width="86" x="5" y="-92"/></g><rect fill="url(#u)" height="84" opacity=".45" rx="6" transform="scale(1 -1)" width="84" x="6" y="-91"/></g><g><path d="m12 6c-3.324 0-6 2.676-6 6v72c0 3.324 2.676 6 6 6h72c3.324 0 6-2.676 6-6v-72c0-3.324-2.676-6-6-6h-9v3h-6v-3z" fill="url(#h)"/><path d="m6 56v28c0 3.324 2.676 6 6 6h12v-34z" fill="url(#e)"/><path d="m90 56v28c0 3.324-2.676 6-6 6h-12v-34z" fill="url(#f)"/><path d="m6 82v2c0 3.324 2.676 6 6 6h72c3.324 0 6-2.676 6-6v-2c0 3.324-2.676 6-6 6h-72c-3.324 0-6-2.676-6-6z" opacity=".15"/><path d="m6 78v2c0 3.324 2.676 6 6 6h72c3.324 0 6-2.676 6-6v-2c0 3.324-2.676 6-6 6h-72c-3.324 0-6-2.676-6-6z" fill="#fff" opacity=".8"/><path d="m6 76v2c0 3.324 2.676 6 6 6h72c3.324 0 6-2.676 6-6v-2c0 3.324-2.676 6-6 6h-72c-3.324 0-6-2.676-6-6z" opacity=".15"/><path d="m6 72v2c0 3.324 2.676 6 6 6h72c3.324 0 6-2.676 6-6v-2c0 3.324-2.676 6-6 6h-72c-3.324 0-6-2.676-6-6z" fill="#fff" opacity=".8"/><path d="m6 70v2c0 3.324 2.676 6 6 6h72c3.324 0 6-2.676 6-6v-2c0 3.324-2.676 6-6 6h-72c-3.324 0-6-2.676-6-6z" opacity=".15"/><path d="m12 6c-3.324 0-6 2.676-6 6v56c0 3.324 2.676 6 6 6h72c3.324 0 6-2.676 6-6v-56c0-3.324-2.676-6-6-6h-9v3h-6v-3z" fill="url(#g)"/><path d="m12 6c-3.324 0-6 2.676-6 6v56c0 3.324 2.676 6 6 6h72c3.324 0 6-2.676 6-6v-56c0-3.324-2.676-6-6-6h-9v2h9c2.245802 0 4 1.7541975 4 4v56c0 2.245802-1.754198 4-4 4h-72c-2.2458025 0-4-1.754198-4-4v-56c0-2.2458025 1.7541975-4 4-4h57v-2z" fill="url(#d)"/></g><path d="m66 6v55c0 1.662 1.338 3 3 3h6c1.662 0 3-1.338 3-3v-55h-4v2h-4v-2z" fill="#252525"/><path d="m70 8h4v49h-4z" fill="#4d4d4d"/><rect fill="url(#k)" height="4" rx="1" stroke="#000" stroke-linecap="square" stroke-opacity=".563636" stroke-width=".5" width="6" x="69" y="56"/><path d="m66 6v55c0 1.662 1.338 3 3 3h6c1.662 0 3-1.338 3-3v-55h-4v2h-4v-2z" style="fill:none;stroke:#000;stroke-width:2;stroke-linecap:square;clip-path:url(#i);filter:url(#j)"/><path id="v" d="m69.5 51c-.269774 0-.5.217964-.5.5v3c0 .282036.230229.5.5.5h1c.269774 0 .5-.217964.5-.5v-.5h1.5c.277 0 .5-.223.5-.5v-1c0-.277-.223-.5-.5-.5h-1.5v-.5c0-.282036-.230229-.5-.5-.5z" fill="url(#l)" stroke="#000" stroke-linecap="square" stroke-opacity=".563636" stroke-width=".5"/><use id="w" height="96" transform="translate(0 -6)" width="96" xlink:href="#v"/><use id="x" height="96" transform="translate(0 -6)" width="96" xlink:href="#w"/><use id="y" height="96" transform="translate(0 -6)" width="96" xlink:href="#x"/><use id="z" height="96" transform="translate(0 -6)" width="96" xlink:href="#y"/><use id="A" height="96" transform="translate(0 -6)" width="96" xlink:href="#z"/><use id="B" height="96" transform="translate(0 -6)" width="96" xlink:href="#A"/><use height="96" transform="translate(0 -6)" width="96" xlink:href="#B"/><path id="C" d="m74.5 48c.269774 0 .5.217964.5.5v3c0 .282036-.230229.5-.5.5h-1c-.269774 0-.5-.217964-.5-.5v-.5h-1.5c-.277 0-.5-.223-.5-.5v-1c0-.277.223-.5.5-.5h1.5v-.5c0-.282036.230229-.5.5-.5z" fill="url(#r)" stroke="#000" stroke-linecap="square" stroke-opacity=".563636" stroke-width=".5"/><use id="D" height="96" transform="translate(0 -6)" width="96" xlink:href="#C"/><use id="E" height="96" transform="translate(0 -6)" width="96" xlink:href="#D"/><use id="F" height="96" transform="translate(0 -6)" width="96" xlink:href="#E"/><use id="G" height="96" transform="translate(0 -6)" width="96" xlink:href="#F"/><use id="H" height="96" transform="translate(0 -6)" width="96" xlink:href="#G"/><use height="96" transform="translate(0 -6)" width="96" xlink:href="#H"/><path d="m65 6v55c0 2.202295 1.797705 4 4 4h6c2.202295 0 4-1.797705 4-4v-55h-1v55c0 1.662-1.338 3-3 3h-6c-1.662 0-3-1.338-3-3v-55z" fill="url(#m)"/><path d="m69.5 10.53125c-1.027701 0-1.96875.765203-1.96875 1.8125v10.8125c-.000005 1.047305.918081 1.84375 1.96875 1.84375h5c1.050668 0 1.96875-.796448 1.96875-1.84375v-10.8125c-.000003-1.047297-.941051-1.8125-1.96875-1.8125zm1.0625 9.0625h2.875v1.75h-2.875z" filter="url(#n)" stroke="#000" stroke-linecap="square" stroke-opacity=".563636" stroke-width=".5" transform="translate(0 -2)"/><path d="m69.229249 9.021415c-.687139 0-1.229249.48237-1.229249 1.081548l-.0051 10.815488c.000022.599179.542134 1.081549 1.229271 1.081549h5.583221c.687139 0 1.229249-.48237 1.229249-1.081549l.0051-10.815488c0-.599178-.542112-1.081548-1.229249-1.081548h-5.583221zm.704303 7.949648h4.101324v3.118378h-4.101324z" fill="url(#p)"/><path d="m74.5625 9.96875c.277 0 .5.223.5.5v10.0625c0 .277-.223.5-.5.5h-5.09375c-.277 0-.499999-.223-.5-.5v-10.0625c0-.277.223001-.5.5-.5zm-.4375 6.96875h-4.125v3.125h4.125z" fill="url(#o)"/><rect fill="url(#q)" height="5" rx=".563135" ry=".5" stroke="#000" stroke-linecap="square" stroke-opacity=".563636" width="3.378807" x="70.3106" y="7.5"/><path d="m69.984634 16h4v1h-4z" opacity=".3"/><g fill-rule="evenodd" transform="matrix(.1079774 0 0 .1079774 42.189931 37.354303)"><path d="m-116.65759 144.30809s-17.265 10.049 12.301 13.44c35.823999 4.09 54.129999 3.501 93.595999-3.959 0 0 10.39700015 6.504 24.892 12.137-88.501 37.917-200.295999-2.197-130.788999-21.618z" fill="#0074bd"/><path d="m-127.47759 94.820089s-19.367 14.339001 10.221 17.397001c38.270999 3.951 68.482999 4.275 120.7919992-5.792 0 0 7.2179998 7.332 18.5849998 11.339-106.986 31.294-226.146999 2.462-149.597999-22.944001z" fill="#0074bd"/><path d="m-36.314591 10.861089c21.818 25.115-5.721 47.697-5.721 47.697s55.367-28.577 29.945-64.3800003c-23.752-33.3729997-41.962-49.9509997 56.623-107.1239987.001 0-154.753999 38.640999-80.847 123.806999z" fill="#ea2d2e"/><g fill="#0074bd"><path d="m80.733409 180.91809s12.781 10.536-14.077 18.684c-51.071 15.469-212.603999 20.135-257.469999.619-16.117-7.02 14.121-16.75 23.635-18.805 9.92-2.146 15.584-1.754 15.584-1.754-17.937-12.631-115.935 24.807-49.772 35.544 180.428999 29.246 328.895-13.173 282.099999-34.288z"/><path d="m-108.34859 43.538089s-82.155 19.519-29.092 26.613c22.412 2.999 67.062999 2.309 108.684999-1.183 34.0060002-2.854 68.133-8.958 68.133-8.958s-11.982 5.14-20.657 11.06c-83.444 21.947-244.611999 11.726-198.206999-10.712 39.227-18.977 71.138-16.82 71.138-16.82z"/><path d="m39.037409 125.91409c84.818001-44.063001 45.597-86.412001 18.223-80.708001-6.694 1.397-9.697 2.607-9.697 2.607s2.494-3.907 7.243-5.588c54.155001-19.03 95.794001 56.146-17.464 85.919001-.001 0 1.302-1.18 1.695-2.23z"/></g><path d="m-12.089591-205.28391s46.963 46.99-44.557 119.226999c-73.392999 57.969-16.734 91.0089997-.026 128.778-42.845-38.6530003-74.270999-72.684-53.191999-104.352 30.953999-46.478999 116.7189992-69.020999 97.774999-143.652999z" fill="#ea2d2e"/><path d="m-100.00959 245.35309c81.396999 5.204 206.426-2.896 209.385-41.415 0 0-5.688 14.602-67.276001 26.188-69.481 13.081-155.196999 11.558-206.015999 3.167 0 0 10.411 8.617 63.907 12.06z" fill="#0074bd"/></g></svg>
