<?xml version="1.0"?>
<svg width="256" height="256" xmlns="http://www.w3.org/2000/svg" xmlns:svg="http://www.w3.org/2000/svg" enable-background="new 0 0 500 380" version="1.1" xml:space="preserve">
	<style type="text/css">.st0{fill:#58595B;}
		.st1{fill:#FDB940;}
		.st2{fill:#FEB322;}
		.st3{fill:#F98200;}
		.st4{fill:#1B208B;}
	</style>
	<g class="layer">
		<title>Layer 1</title>
		<g id="svg_11" transform="translate(-1) translate(-1) translate(-1) translate(-1) translate(0, -1) translate(0, -1) translate(0, -1) translate(0, -1) translate(0, -1) translate(0, -1) translate(0, -1) translate(0, -1) translate(0, -1) translate(0, -1) translate(0, -1) translate(0, -1) translate(0, -1) translate(0, -1) translate(0, -1) translate(0, -1) translate(-1) translate(-1) translate(-1) translate(-1) translate(-1) translate(-1) translate(-1) translate(-1) translate(-1) translate(-1) translate(-1) translate(-1) translate(-1) translate(-1) translate(-1) translate(-1) translate(-1) translate(-1) translate(-1) translate(-1) translate(-1) translate(-1) translate(-1) translate(-1) translate(-1) translate(-1) translate(-1) translate(-1) translate(-1) translate(-1) translate(-1) translate(-1) translate(-1) translate(-1) translate(-1) translate(-1) translate(-1) translate(-1) translate(-1) translate(-1) translate(-1) translate(-1) translate(-1) translate(-1) translate(-1) translate(-1) translate(-1) translate(-1) translate(-1) translate(-1) translate(-1) translate(-1) translate(-1) translate(-1) translate(-1) translate(-1) translate(-1) translate(-1) translate(-1) translate(-1) translate(-1) translate(-1) translate(-1) translate(-1) translate(-1) translate(-1) translate(-1) translate(-1) translate(-1) translate(-1) translate(-1) translate(-1) translate(-1) translate(-1) translate(-1) translate(-1) translate(-1) translate(-1) translate(-1) translate(-1) translate(-1) translate(-1) translate(-1) translate(-1) translate(-1) translate(-1) translate(-1) translate(-1) translate(-1) translate(-1) translate(-1) translate(-1) translate(-1) translate(-1) translate(-1) translate(-1) translate(-1) translate(-1) translate(-1) translate(-1) translate(-1) translate(-1) translate(-1) translate(-1) translate(-1) translate(-1) translate(-1) translate(-1) translate(-1) translate(-1) translate(-1) translate(-1) translate(-1) translate(-1) translate(-1) translate(-1) translate(-1) translate(-1) translate(-1) translate(-1)">
			<path class="st1" d="m369.5,20.3l-62.5,68.4c-0.8,34.7 -9.2,86.9 -46,134.7l54.4,13.6c90.7,-85.4 54.1,-216.7 54.1,-216.7z" id="svg_12"/>
			<path class="st2" d="m307,88.7c0.5,-24 -2.6,-39.6 -2.6,-39.6l-137.9,151l94.3,23.6c0.1,-0.1 0.1,-0.2 0.2,-0.3l-62.7,-15.7l108.7,-119z" id="svg_13"/>
			<path class="st3" d="m198.4,207.7l62.7,15.7c36.8,-47.7 45.2,-100 46,-134.7l-108.7,119z" id="svg_14"/>
			<path class="st4" d="m285.6,239.1c5.5,0 10.8,0.3 16.1,0.7l-177.9,-43.8c0,0 33.1,11 73.1,70.8c21.1,-17 53,-27.7 88.7,-27.7z" id="svg_15"/>
		</g>
	</g>
</svg>
