<svg viewBox="0 0 1024.038 1089.841" xmlns="http://www.w3.org/2000/svg"><path d="M239.21 1056.94V945.29h91.88v111.65h-91.88zm-50.326-861.48c-21.355 0-38.835 17.463-38.835 38.798v625.066c0 21.336 17.48 38.797 38.834 38.797H811.87c21.337 0 38.817-17.46 38.817-38.796V234.258c0-21.336-17.48-38.797-38.816-38.797H188.885zm164.053 181.534H647.8c12.89 0 23.434 10.564 23.434 23.452v292.71c0 12.887-10.545 23.432-23.433 23.432H352.938c-12.888 0-23.414-10.545-23.414-23.433v-292.71c0-12.887 10.526-23.45 23.414-23.45zm671.1 202.793v76.328H912.39v-76.328h111.648zm0-146.06v76.327H912.39v-76.328h111.648zm0 292.122v91.88H912.39v-91.88h111.648zm0-453.74v91.882H912.39v-91.88h111.648zM0 579.79v76.328h111.65v-76.328H0zm0-146.062v76.328h111.65v-76.328H0zM0 725.85v91.88h111.65v-91.88H0zm0-453.738v91.88h111.65v-91.88H0zm546.884-239.21h76.328v111.65h-76.328V32.9zm-146.06 0h76.327v111.65h-76.327V32.9zm292.122 0h91.88v111.65h-91.88V32.9zm-453.738 0h91.88v111.65h-91.88V32.9zm307.677 1024.04h76.328V945.29h-76.328v111.65zm-146.06 0h76.327V945.29h-76.328v111.65zm292.122 0h91.88V945.29h-91.88v111.65z"/></svg>
